# Blender 4.0.2
# www.blender.org
mtllib wizard_tower.mtl
o Wizard_tower
v 0.000000 -0.652602 -3.017802
v 0.000000 0.652602 -2.396889
v 1.154863 -0.652602 -2.788085
v 0.917250 0.652602 -2.214437
v 2.133908 -0.652602 -2.133908
v 1.694857 0.652602 -1.694857
v 2.788085 -0.652602 -1.154863
v 2.214437 0.652602 -0.917250
v 3.017802 -0.652602 -0.000000
v 2.396889 0.652602 -0.000000
v 2.788085 -0.652602 1.154863
v 2.214437 0.652602 0.917250
v 2.133908 -0.652602 2.133908
v 1.694857 0.652602 1.694857
v 1.154863 -0.652602 2.788085
v 0.917250 0.652602 2.214437
v 0.000000 -0.652602 3.017802
v 0.000000 0.652602 2.396889
v -1.154863 -0.652602 2.788085
v -0.917250 0.652602 2.214437
v -2.133908 -0.652602 2.133908
v -1.694857 0.652602 1.694857
v -2.788085 -0.652602 1.154863
v -2.214437 0.652602 0.917250
v -3.017802 -0.652602 -0.000000
v -2.396889 0.652602 -0.000000
v -2.788085 -0.652602 -1.154863
v -2.214437 0.652602 -0.917250
v -2.133908 -0.652602 -2.133908
v -1.694857 0.652602 -1.694857
v -1.154863 -0.652602 -2.788085
v -0.917250 0.652602 -2.214437
v 1.154863 0.652602 -2.788085
v 0.000000 0.652602 -3.017802
v 2.133908 0.652602 -2.133908
v 2.788085 0.652602 -1.154863
v 3.017802 0.652602 -0.000000
v 2.788085 0.652602 1.154863
v 2.133908 0.652602 2.133908
v 1.154863 0.652602 2.788085
v 0.000000 0.652602 3.017802
v -1.154863 0.652602 2.788085
v -2.133908 0.652602 2.133908
v -2.788085 0.652602 1.154863
v -3.017802 0.652602 -0.000000
v -2.788085 0.652602 -1.154863
v -2.133908 0.652602 -2.133908
v -1.154863 0.652602 -2.788085
v 0.917250 4.922487 -2.214437
v 0.000000 4.922487 -2.396889
v 1.694857 4.922487 -1.694857
v 2.214437 4.922487 -0.917250
v 2.396889 4.922487 -0.000000
v 2.214437 4.922487 0.917250
v 1.694857 4.922487 1.694857
v 0.917250 4.922487 2.214437
v 0.000000 4.922487 2.396889
v -0.917250 4.922487 2.214437
v -1.694857 4.922487 1.694857
v -2.214437 4.922487 0.917250
v -2.396889 4.922487 -0.000000
v -2.214437 4.922487 -0.917250
v -1.694857 4.922487 -1.694857
v -0.917250 4.922487 -2.214437
v 1.376358 4.922487 -3.322822
v 0.000000 4.922487 -3.596596
v 2.543178 4.922487 -2.543178
v 3.322822 4.922487 -1.376358
v 3.596596 4.922487 -0.000000
v 3.322822 4.922487 1.376358
v 2.543178 4.922487 2.543178
v 1.376358 4.922487 3.322822
v 0.000000 4.922487 3.596596
v -1.376358 4.922487 3.322822
v -2.543178 4.922487 2.543178
v -3.322822 4.922487 1.376358
v -3.596596 4.922487 -0.000000
v -3.322822 4.922487 -1.376358
v -2.543178 4.922487 -2.543178
v -1.376358 4.922487 -3.322822
v 0.917250 5.456219 -2.214437
v 0.000000 5.456219 -2.396889
v 1.694857 5.456219 -1.694857
v 2.214437 5.456219 -0.917250
v 2.396889 5.456219 -0.000000
v 2.214437 5.456219 0.917250
v 1.694857 5.456219 1.694857
v 0.917250 5.456219 2.214437
v 0.000000 5.456219 2.396889
v -0.917250 5.456219 2.214437
v -1.694857 5.456219 1.694857
v -2.214437 5.456219 0.917250
v -2.396889 5.456219 -0.000000
v -2.214437 5.456219 -0.917250
v -1.694857 5.456219 -1.694857
v -0.917250 5.456219 -2.214437
v 1.376358 5.456219 -3.322822
v 0.000000 5.456219 -3.596596
v 2.543178 5.456219 -2.543178
v 3.322822 5.456219 -1.376358
v 3.596596 5.456219 -0.000000
v 3.322822 5.456219 1.376358
v 2.543178 5.456219 2.543178
v 1.376358 5.456219 3.322822
v 0.000000 5.456219 3.596596
v -1.376358 5.456219 3.322822
v -2.543178 5.456219 2.543178
v -3.322822 5.456219 1.376358
v -3.596596 5.456219 -0.000000
v -3.322822 5.456219 -1.376358
v -2.543178 5.456219 -2.543178
v -1.376358 5.456219 -3.322822
v 0.917250 6.224538 -2.214437
v 0.000000 6.224538 -2.396889
v 2.214437 6.224538 -0.917250
v 1.694857 6.224538 -1.694857
v 2.214437 6.224538 0.917250
v 2.396889 6.224538 -0.000000
v 0.917250 6.224538 2.214437
v 1.694857 6.224538 1.694857
v -0.917250 6.224538 2.214437
v 0.000000 6.224538 2.396889
v -2.214437 6.224538 0.917250
v -1.694857 6.224538 1.694857
v -2.214437 6.224538 -0.917250
v -2.396889 6.224538 -0.000000
v -0.917250 6.224538 -2.214437
v -1.694857 6.224538 -1.694857
v 1.376358 6.224539 -3.322822
v 0.000000 6.224539 -3.596596
v 3.322822 6.224539 -1.376358
v 2.543178 6.224539 -2.543178
v 3.322822 6.224539 1.376358
v 3.596596 6.224539 -0.000000
v 1.376358 6.224539 3.322822
v 2.543178 6.224539 2.543178
v -1.376358 6.224539 3.322822
v 0.000000 6.224539 3.596596
v -3.322822 6.224539 1.376358
v -2.543178 6.224539 2.543178
v -3.322822 6.224539 -1.376358
v -3.596596 6.224539 -0.000000
v -1.376358 6.224539 -3.322822
v -2.543178 6.224539 -2.543178
v 0.917250 3.966180 -2.214437
v 0.000000 3.966180 -2.396889
v 1.694857 3.966180 -1.694857
v 2.214437 3.966180 -0.917250
v 2.396889 3.966180 -0.000000
v 2.214437 3.966180 0.917250
v 1.694857 3.966180 1.694857
v 0.917250 3.966180 2.214437
v 0.000000 3.966180 2.396889
v -0.917250 3.966180 2.214437
v -1.694857 3.966180 1.694857
v -2.214437 3.966180 0.917250
v -2.396889 3.966180 -0.000000
v -2.214437 3.966180 -0.917250
v -1.694857 3.966180 -1.694857
v -0.917250 3.966180 -2.214437
v 1.153599 4.676552 -2.785034
v -0.000000 4.676552 -3.014499
v 2.131572 4.676552 -2.131573
v 2.785034 4.676552 -1.153599
v 3.014499 4.676552 -0.000000
v 2.785034 4.676552 1.153599
v 2.131572 4.676552 2.131573
v 1.153599 4.676552 2.785034
v -0.000000 4.676552 3.014499
v -1.153599 4.676552 2.785034
v -2.131573 4.676552 2.131572
v -2.785034 4.676552 1.153599
v -3.014499 4.676552 -0.000000
v -2.785034 4.676552 -1.153599
v -2.131572 4.676552 -2.131572
v -1.153599 4.676552 -2.785034
v 1.153599 4.968198 -2.785034
v 0.000000 4.968198 -3.014499
v 2.131572 4.968198 -2.131573
v 2.785034 4.968198 -1.153599
v 3.014499 4.968198 -0.000000
v 2.785034 4.968198 1.153599
v 2.131572 4.968198 2.131573
v 1.153599 4.968198 2.785034
v 0.000000 4.968198 3.014499
v -1.153599 4.968198 2.785034
v -2.131573 4.968198 2.131572
v -2.785034 4.968198 1.153599
v -3.014499 4.968198 -0.000000
v -2.785034 4.968198 -1.153599
v -2.131572 4.968198 -2.131572
v -1.153599 4.968198 -2.785034
v 0.615534 6.230710 -2.919597
v 0.019039 7.265060 -2.885973
v 0.399229 7.265060 -3.476506
v 1.078351 7.265060 -3.297412
v 1.117868 7.265060 -2.596184
v 0.463179 7.265060 -2.341908
v 0.113199 8.938684 -3.243010
v 0.767888 8.938684 -3.497286
v 1.212028 8.938684 -2.953221
v 0.831839 8.938684 -2.362688
v 0.152716 8.938684 -2.541782
v 0.615534 9.973034 -2.919597
v -2.788956 6.676628 -0.612140
v -2.305614 7.710978 -0.260976
v -2.973572 7.710978 -0.043939
v -3.386404 7.710978 -0.612140
v -2.973572 7.710978 -1.180341
v -2.305614 7.710978 -0.963305
v -2.604339 9.384602 -0.043940
v -3.272298 9.384602 -0.260976
v -3.272298 9.384602 -0.963305
v -2.604339 9.384602 -1.180341
v -2.191508 9.384602 -0.612140
v -2.788956 10.418951 -0.612140
v 2.874590 6.249805 0.504615
v 3.011247 7.284155 -0.076987
v 3.469955 7.284155 0.454860
v 3.105887 7.284155 1.055474
v 2.422170 7.284155 0.894810
v 2.363686 7.284155 0.194915
v 3.327009 8.957779 0.114420
v 3.385493 8.957779 0.814315
v 2.737932 8.957779 1.086217
v 2.279224 8.957779 0.554370
v 2.643292 8.957779 -0.046243
v 2.874590 9.992129 0.504615
v -0.574718 7.377063 2.937775
v -0.012796 8.411413 2.734845
v -0.208077 8.411413 3.409485
v -0.910049 8.411413 3.432241
v -1.148598 8.411413 2.771653
v -0.594065 8.411413 2.340647
v -0.000837 10.085037 3.103897
v -0.555370 10.085037 3.534903
v -1.136639 10.085037 3.140705
v -0.941358 10.085037 2.466064
v -0.239386 10.085037 2.443308
v -0.574718 11.119387 2.937775
v 0.080616 6.003770 0.022778
v -0.346498 7.852851 1.001686
v -0.982366 7.852851 -0.080934
v -0.149226 7.852851 -1.020240
v 1.001551 7.852851 -0.518114
v 0.879619 7.852851 0.731496
v -0.840319 10.844743 0.563669
v -0.718387 10.844743 -0.685940
v 0.507730 10.844743 -0.956130
v 1.143597 10.844743 0.126489
v 0.310457 10.844743 1.065795
v 0.080616 12.693823 0.022778
vn 0.1951 -0.0000 -0.9808
vn 0.5556 -0.0000 -0.8315
vn 0.8315 -0.0000 -0.5556
vn 0.9808 -0.0000 -0.1951
vn 0.9808 -0.0000 0.1951
vn 0.8315 -0.0000 0.5556
vn 0.5556 -0.0000 0.8315
vn 0.1951 -0.0000 0.9808
vn -0.1951 -0.0000 0.9808
vn -0.5556 -0.0000 0.8315
vn -0.8315 -0.0000 0.5556
vn -0.9808 -0.0000 0.1951
vn -0.9808 -0.0000 -0.1951
vn -0.8315 -0.0000 -0.5556
vn -0.5556 -0.0000 -0.8315
vn -0.1951 -0.0000 -0.9808
vn -0.0000 -1.0000 -0.0000
vn -0.0000 1.0000 -0.0000
vn -0.7071 -0.0000 -0.7071
vn 0.7071 -0.0000 0.7071
vn 0.9239 -0.0000 0.3827
vn -0.9239 -0.0000 -0.3827
vn -0.3827 -0.0000 -0.9239
vn 0.3827 -0.0000 0.9239
vn -0.0000 -0.0000 1.0000
vn -0.0000 -0.0000 -1.0000
vn 0.3827 -0.0000 -0.9239
vn 0.7071 -0.0000 -0.7071
vn -0.3827 -0.0000 0.9239
vn -0.9239 -0.0000 0.3827
vn -0.7071 -0.0000 0.7071
vn 0.9239 -0.0000 -0.3827
vn -1.0000 -0.0000 -0.0000
vn 1.0000 -0.0000 -0.0000
vn -0.4227 -0.6488 -0.6327
vn 0.1484 -0.6488 0.7463
vn 0.1484 -0.6488 -0.7463
vn -0.1484 -0.6488 -0.7463
vn -0.1484 -0.6488 0.7463
vn 0.4227 -0.6488 -0.6327
vn -0.4227 -0.6488 0.6327
vn 0.6327 -0.6488 -0.4227
vn -0.6327 -0.6488 0.4227
vn 0.7463 -0.6488 -0.1484
vn -0.7463 -0.6488 0.1484
vn 0.7463 -0.6488 0.1484
vn -0.7463 -0.6488 -0.1484
vn 0.6327 -0.6488 0.4227
vn -0.6327 -0.6488 -0.4227
vn 0.4227 -0.6488 0.6327
vn -0.7618 -0.4233 -0.4904
vn -0.7018 -0.4233 0.5729
vn 0.2310 -0.4233 -0.8760
vn 0.9045 -0.4233 -0.0510
vn 0.3280 -0.4233 0.8445
vn -0.7729 -0.0680 0.6309
vn -0.8389 -0.0680 -0.5401
vn 0.2544 -0.0680 -0.9647
vn 0.9961 -0.0680 -0.0561
vn 0.3612 -0.0680 0.9300
vn -0.9961 0.0680 0.0561
vn -0.3612 0.0680 -0.9300
vn 0.7729 0.0680 -0.6309
vn 0.8389 0.0680 0.5401
vn -0.2544 0.0680 0.9647
vn -0.9045 0.4233 0.0510
vn -0.3280 0.4233 -0.8445
vn 0.7018 0.4233 -0.5729
vn 0.7618 0.4233 0.4904
vn -0.2310 0.4233 0.8760
vn 0.2800 -0.4233 0.8616
vn 0.9060 -0.4233 -0.0000
vn -0.7329 -0.4233 0.5325
vn -0.7329 -0.4233 -0.5325
vn 0.2800 -0.4233 -0.8616
vn 0.9977 -0.0680 -0.0000
vn 0.3083 -0.0680 0.9489
vn -0.8071 -0.0680 0.5864
vn -0.8071 -0.0680 -0.5864
vn 0.3083 -0.0680 -0.9489
vn 0.8071 0.0680 0.5864
vn -0.3083 0.0680 0.9489
vn -0.9977 0.0680 -0.0000
vn -0.3083 0.0680 -0.9489
vn 0.8071 0.0680 -0.5864
vn 0.7329 0.4233 0.5325
vn -0.2800 0.4233 0.8616
vn -0.9060 0.4234 -0.0000
vn -0.2800 0.4233 -0.8616
vn 0.7329 0.4233 -0.5325
vn 0.6860 -0.4233 -0.5917
vn -0.3507 -0.4233 -0.8353
vn 0.7747 -0.4233 0.4696
vn -0.2072 -0.4233 0.8819
vn -0.9028 -0.4233 0.0754
vn -0.3862 -0.0680 -0.9199
vn 0.7555 -0.0680 -0.6516
vn 0.8532 -0.0680 0.5172
vn -0.2282 -0.0680 0.9712
vn -0.9942 -0.0680 0.0831
vn 0.2282 0.0680 -0.9712
vn 0.9942 0.0680 -0.0831
vn 0.3862 0.0680 0.9199
vn -0.7555 0.0680 0.6516
vn -0.8532 0.0680 -0.5172
vn 0.2072 0.4233 -0.8819
vn 0.9028 0.4233 -0.0754
vn 0.3507 0.4233 0.8353
vn -0.6860 0.4233 0.5917
vn -0.7747 0.4233 -0.4696
vn 0.8702 -0.4233 0.2519
vn 0.5085 -0.4233 -0.7498
vn 0.0294 -0.4233 0.9055
vn -0.8521 -0.4233 0.3077
vn -0.5560 -0.4233 -0.7153
vn 0.5600 -0.0680 -0.8257
vn 0.9583 -0.0680 0.2774
vn 0.0323 -0.0680 0.9972
vn -0.9384 -0.0680 0.3389
vn -0.6123 -0.0680 -0.7877
vn 0.9384 0.0680 -0.3389
vn 0.6123 0.0680 0.7877
vn -0.5600 0.0680 0.8257
vn -0.9583 0.0680 -0.2774
vn -0.0323 0.0680 -0.9972
vn 0.8521 0.4233 -0.3077
vn 0.5560 0.4233 0.7153
vn -0.5085 0.4234 0.7498
vn -0.8702 0.4233 -0.2519
vn -0.0294 0.4233 -0.9055
vn -0.7812 -0.4233 0.4588
vn 0.1950 -0.4233 0.8847
vn -0.6778 -0.4233 -0.6012
vn 0.3623 -0.4233 -0.8304
vn 0.9017 -0.4233 0.0880
vn 0.2147 -0.0680 0.9743
vn -0.8603 -0.0680 0.5053
vn -0.7464 -0.0680 -0.6620
vn 0.3990 -0.0680 -0.9144
vn 0.9930 -0.0680 0.0969
vn -0.3990 0.0680 0.9144
vn -0.9930 0.0680 -0.0969
vn -0.2147 0.0680 -0.9743
vn 0.8603 0.0680 -0.5053
vn 0.7464 0.0680 0.6620
vn -0.3623 0.4233 0.8304
vn -0.9017 0.4233 -0.0880
vn -0.1950 0.4233 -0.8847
vn 0.7812 0.4233 -0.4588
vn 0.6778 0.4233 0.6012
vt 1.000000 0.500000
vt 1.000000 1.000000
vt 0.937500 1.000000
vt 0.937500 0.500000
vt 0.875000 1.000000
vt 0.875000 0.500000
vt 0.812500 1.000000
vt 0.812500 0.500000
vt 0.750000 1.000000
vt 0.750000 0.500000
vt 0.687500 1.000000
vt 0.687500 0.500000
vt 0.625000 1.000000
vt 0.625000 0.500000
vt 0.562500 1.000000
vt 0.562500 0.500000
vt 0.500000 1.000000
vt 0.500000 0.500000
vt 0.437500 1.000000
vt 0.437500 0.500000
vt 0.375000 1.000000
vt 0.375000 0.500000
vt 0.312500 1.000000
vt 0.312500 0.500000
vt 0.250000 1.000000
vt 0.250000 0.500000
vt 0.187500 1.000000
vt 0.187500 0.500000
vt 0.125000 1.000000
vt 0.125000 0.500000
vt 0.177053 0.426110
vt 0.115211 0.384789
vt 0.062500 1.000000
vt 0.062500 0.500000
vt 0.000000 1.000000
vt 0.000000 0.500000
vt 0.750000 0.490000
vt 0.841844 0.471731
vt 0.919706 0.419706
vt 0.971731 0.341844
vt 0.990000 0.250000
vt 0.971731 0.158156
vt 0.919706 0.080294
vt 0.841844 0.028269
vt 0.750000 0.010000
vt 0.658156 0.028269
vt 0.580294 0.080294
vt 0.528269 0.158156
vt 0.510000 0.250000
vt 0.528269 0.341844
vt 0.580294 0.419706
vt 0.658156 0.471731
vt 0.250000 0.440620
vt 0.322947 0.426110
vt 0.341844 0.471731
vt 0.250000 0.490000
vt 0.384789 0.384789
vt 0.419706 0.419706
vt 0.426110 0.322947
vt 0.471731 0.341844
vt 0.440620 0.250000
vt 0.490000 0.250000
vt 0.426110 0.177053
vt 0.471731 0.158156
vt 0.384789 0.115211
vt 0.419706 0.080294
vt 0.322947 0.073890
vt 0.341844 0.028269
vt 0.250000 0.059380
vt 0.250000 0.010000
vt 0.177053 0.073890
vt 0.158156 0.028269
vt 0.115211 0.115211
vt 0.080294 0.080294
vt 0.073890 0.177053
vt 0.028269 0.158156
vt 0.059380 0.250000
vt 0.010000 0.250000
vt 0.073890 0.322947
vt 0.028269 0.341844
vt 0.080294 0.419706
vt 0.158156 0.471731
vt 0.181819 0.000000
vt 0.272728 0.157461
vt 0.090910 0.157461
vt 0.363637 0.000000
vt 0.454546 0.157461
vt 0.909091 0.000000
vt 1.000000 0.157461
vt 0.818182 0.157461
vt 0.727273 0.000000
vt 0.636364 0.157461
vt 0.545455 0.000000
vt 0.363637 0.314921
vt 0.181819 0.314921
vt 0.909091 0.314921
vt 0.727273 0.314921
vt 0.545455 0.314921
vt 0.000000 0.314921
vt 0.272728 0.472382
vt 0.090910 0.472382
vt 0.818182 0.472382
vt 0.636364 0.472382
vt 0.454546 0.472382
s 0
usemtl Material.002
f 1/1/1 34/2/1 33/3/1 3/4/1
f 3/4/2 33/3/2 35/5/2 5/6/2
f 5/6/3 35/5/3 36/7/3 7/8/3
f 7/8/4 36/7/4 37/9/4 9/10/4
f 9/10/5 37/9/5 38/11/5 11/12/5
f 11/12/6 38/11/6 39/13/6 13/14/6
f 13/14/7 39/13/7 40/15/7 15/16/7
f 15/16/8 40/15/8 41/17/8 17/18/8
f 17/18/9 41/17/9 42/19/9 19/20/9
f 19/20/10 42/19/10 43/21/10 21/22/10
f 21/22/11 43/21/11 44/23/11 23/24/11
f 23/24/12 44/23/12 45/25/12 25/26/12
f 25/26/13 45/25/13 46/27/13 27/28/13
f 27/28/14 46/27/14 47/29/14 29/30/14
f 32/31/15 30/32/15 63/32/15 64/31/15
f 29/30/15 47/29/15 48/33/15 31/34/15
f 31/34/16 48/33/16 34/35/16 1/36/16
f 1/37/17 3/38/17 5/39/17 7/40/17 9/41/17 11/42/17 13/43/17 15/44/17 17/45/17 19/46/17 21/47/17 23/48/17 25/49/17 27/50/17 29/51/17 31/52/17
f 2/53/18 4/54/18 33/55/18 34/56/18
f 4/54/18 6/57/18 35/58/18 33/55/18
f 6/57/18 8/59/18 36/60/18 35/58/18
f 8/59/18 10/61/18 37/62/18 36/60/18
f 10/61/18 12/63/18 38/64/18 37/62/18
f 12/63/18 14/65/18 39/66/18 38/64/18
f 14/65/18 16/67/18 40/68/18 39/66/18
f 16/67/18 18/69/18 41/70/18 40/68/18
f 18/69/18 20/71/18 42/72/18 41/70/18
f 20/71/18 22/73/18 43/74/18 42/72/18
f 22/73/18 24/75/18 44/76/18 43/74/18
f 24/75/18 26/77/18 45/78/18 44/76/18
f 26/77/18 28/79/18 46/80/18 45/78/18
f 28/79/18 30/32/18 47/81/18 46/80/18
f 30/32/18 32/31/18 48/82/18 47/81/18
f 32/31/18 2/53/18 34/56/18 48/82/18
f 49/54/1 50/53/1 82/53/1 81/54/1
f 18/69/8 16/67/8 56/67/8 57/69/8
f 4/54/1 2/53/1 50/53/1 49/54/1
f 2/53/16 32/31/16 64/31/16 50/53/16
f 20/71/9 18/69/9 57/69/9 58/71/9
f 6/57/2 4/54/2 49/54/2 51/57/2
f 22/73/10 20/71/10 58/71/10 59/73/10
f 8/59/3 6/57/3 51/57/3 52/59/3
f 24/75/11 22/73/11 59/73/11 60/75/11
f 10/61/4 8/59/4 52/59/4 53/61/4
f 26/77/12 24/75/12 60/75/12 61/77/12
f 12/63/5 10/61/5 53/61/5 54/63/5
f 28/79/13 26/77/13 61/77/13 62/79/13
f 14/65/6 12/63/6 54/63/6 55/65/6
f 30/32/14 28/79/14 62/79/14 63/32/14
f 16/67/7 14/65/7 55/65/7 56/67/7
f 65/54/18 66/53/18 80/31/18 79/32/18 78/79/18 77/77/18 76/75/18 75/73/18 74/71/18 73/69/18 72/67/18 71/65/18 70/63/18 69/61/18 68/59/18 67/57/18
f 73/69/1 74/71/1 106/71/1 105/69/1
f 63/32/14 62/79/14 94/79/14 95/32/14
f 72/67/16 73/69/16 105/69/16 104/67/16
f 62/79/13 61/77/13 93/77/13 94/79/13
f 71/65/15 72/67/15 104/67/15 103/65/15
f 61/77/12 60/75/12 92/75/12 93/77/12
f 70/63/14 71/65/14 103/65/14 102/63/14
f 60/75/11 59/73/11 91/73/11 92/75/11
f 69/61/13 70/63/13 102/63/13 101/61/13
f 59/73/10 58/71/10 90/71/10 91/73/10
f 68/59/12 69/61/12 101/61/12 100/59/12
f 58/71/9 57/69/9 89/69/9 90/71/9
f 67/57/11 68/59/11 100/59/11 99/57/11
f 57/69/8 56/67/8 88/67/8 89/69/8
f 80/31/8 66/53/8 98/53/8 112/31/8
f 91/73/19 107/73/19 140/73/19 124/73/19
f 89/69/17 88/67/17 104/67/17 105/69/17
f 107/73/3 108/75/3 139/75/3 140/73/3
f 82/53/17 96/31/17 112/31/17 98/53/17
f 83/57/20 99/57/20 132/57/20 116/57/20
f 83/57/17 81/54/17 97/54/17 99/57/17
f 91/73/17 90/71/17 106/71/17 107/73/17
f 94/79/13 93/77/13 126/77/13 125/79/13
f 106/71/21 90/71/21 121/71/21 137/71/21
f 85/61/17 84/59/17 100/59/17 101/61/17
f 93/77/17 92/75/17 108/75/17 109/77/17
f 105/69/1 106/71/1 137/71/1 138/69/1
f 97/54/22 81/54/22 113/54/22 129/54/22
f 87/65/17 86/63/17 102/63/17 103/65/17
f 95/32/17 94/79/17 110/79/17 111/32/17
f 92/75/11 91/73/11 124/73/11 123/75/11
f 64/31/15 63/32/15 95/32/15 96/31/15
f 74/71/2 75/73/2 107/73/2 106/71/2
f 51/57/2 49/54/2 81/54/2 83/57/2
f 50/53/16 64/31/16 96/31/16 82/53/16
f 75/73/3 76/75/3 108/75/3 107/73/3
f 52/59/3 51/57/3 83/57/3 84/59/3
f 76/75/4 77/77/4 109/77/4 108/75/4
f 53/61/4 52/59/4 84/59/4 85/61/4
f 77/77/5 78/79/5 110/79/5 109/77/5
f 54/63/5 53/61/5 85/61/5 86/63/5
f 78/79/6 79/32/6 111/32/6 110/79/6
f 55/65/6 54/63/6 86/63/6 87/65/6
f 66/53/9 65/54/9 97/54/9 98/53/9
f 79/32/7 80/31/7 112/31/7 111/32/7
f 56/67/7 55/65/7 87/65/7 88/67/7
f 65/54/10 67/57/10 99/57/10 97/54/10
f 127/31/17 128/32/17 144/32/17 143/31/17
f 113/54/17 114/53/17 130/53/17 129/54/17
f 121/71/17 122/69/17 138/69/17 137/71/17
f 115/59/17 116/57/17 132/57/17 131/59/17
f 123/75/17 124/73/17 140/73/17 139/75/17
f 117/63/17 118/61/17 134/61/17 133/63/17
f 125/79/17 126/77/17 142/77/17 141/79/17
f 119/67/17 120/65/17 136/65/17 135/67/17
f 81/54/1 82/53/1 114/53/1 113/54/1
f 96/31/15 95/32/15 128/32/15 127/31/15
f 100/59/23 84/59/23 115/59/23 131/59/23
f 109/77/5 110/79/5 141/79/5 142/77/5
f 108/75/24 92/75/24 123/75/24 139/75/24
f 84/59/3 83/57/3 116/57/3 115/59/3
f 98/53/9 97/54/9 129/54/9 130/53/9
f 85/61/25 101/61/25 134/61/25 118/61/25
f 111/32/7 112/31/7 143/31/7 144/32/7
f 93/77/26 109/77/26 142/77/26 126/77/26
f 86/63/5 85/61/5 118/61/5 117/63/5
f 99/57/11 100/59/11 131/59/11 132/57/11
f 102/63/27 86/63/27 117/63/27 133/63/27
f 95/32/28 111/32/28 144/32/28 128/32/28
f 110/79/29 94/79/29 125/79/29 141/79/29
f 88/67/7 87/65/7 120/65/7 119/67/7
f 112/31/30 96/31/30 127/31/30 143/31/30
f 101/61/13 102/63/13 133/63/13 134/61/13
f 87/65/31 103/65/31 136/65/31 120/65/31
f 104/67/32 88/67/32 119/67/32 135/67/32
f 90/71/9 89/69/9 122/69/9 121/71/9
f 89/69/33 105/69/33 138/69/33 122/69/33
f 103/65/15 104/67/15 135/67/15 136/65/15
f 82/53/34 98/53/34 130/53/34 114/53/34
f 63/32/15 64/31/15 160/31/15 159/32/15
f 56/67/8 57/69/8 153/69/8 152/67/8
f 49/54/9 50/53/9 146/53/9 145/54/9
f 64/31/16 50/53/16 146/53/16 160/31/16
f 57/69/9 58/71/9 154/71/9 153/69/9
f 49/54/2 51/57/2 147/57/2 145/54/2
f 58/71/10 59/73/10 155/73/10 154/71/10
f 51/57/3 52/59/3 148/59/3 147/57/3
f 59/73/11 60/75/11 156/75/11 155/73/11
f 52/59/4 53/61/4 149/61/4 148/59/4
f 60/75/12 61/77/12 157/77/12 156/75/12
f 53/61/5 54/63/5 150/63/5 149/61/5
f 61/77/13 62/79/13 158/79/13 157/77/13
f 54/63/6 55/65/6 151/65/6 150/63/6
f 62/79/14 63/32/14 159/32/14 158/79/14
f 55/65/7 56/67/7 152/67/7 151/65/7
f 160/31/35 159/32/35 175/32/35 176/31/35
f 174/79/13 173/77/13 189/77/13 190/79/13
f 153/69/36 152/67/36 168/67/36 169/69/36
f 145/54/37 146/53/37 162/53/37 161/54/37
f 146/53/38 160/31/38 176/31/38 162/53/38
f 154/71/39 153/69/39 169/69/39 170/71/39
f 147/57/40 145/54/40 161/54/40 163/57/40
f 155/73/41 154/71/41 170/71/41 171/73/41
f 148/59/42 147/57/42 163/57/42 164/59/42
f 156/75/43 155/73/43 171/73/43 172/75/43
f 149/61/44 148/59/44 164/59/44 165/61/44
f 157/77/45 156/75/45 172/75/45 173/77/45
f 150/63/46 149/61/46 165/61/46 166/63/46
f 158/79/47 157/77/47 173/77/47 174/79/47
f 151/65/48 150/63/48 166/63/48 167/65/48
f 159/32/49 158/79/49 174/79/49 175/32/49
f 152/67/50 151/65/50 167/65/50 168/67/50
f 177/54/18 178/53/18 192/31/18 191/32/18 190/79/18 189/77/18 188/75/18 187/73/18 186/71/18 185/69/18 184/67/18 183/65/18 182/63/18 181/61/18 180/59/18 179/57/18
f 167/65/6 166/63/6 182/63/6 183/65/6
f 175/32/14 174/79/14 190/79/14 191/32/14
f 168/67/7 167/65/7 183/65/7 184/67/7
f 176/31/15 175/32/15 191/32/15 192/31/15
f 169/69/8 168/67/8 184/67/8 185/69/8
f 161/54/1 162/53/1 178/53/1 177/54/1
f 162/53/16 176/31/16 192/31/16 178/53/16
f 170/71/9 169/69/9 185/69/9 186/71/9
f 163/57/2 161/54/2 177/54/2 179/57/2
f 171/73/10 170/71/10 186/71/10 187/73/10
f 164/59/3 163/57/3 179/57/3 180/59/3
f 172/75/11 171/73/11 187/73/11 188/75/11
f 165/61/4 164/59/4 180/59/4 181/61/4
f 173/77/12 172/75/12 188/75/12 189/77/12
f 166/63/5 165/61/5 181/61/5 182/63/5
usemtl Material.001
f 193/83/51 194/84/51 195/85/51
f 194/84/52 193/86/52 198/87/52
f 193/88/53 195/89/53 196/90/53
f 193/91/54 196/90/54 197/92/54
f 193/93/55 197/92/55 198/87/55
f 194/84/56 198/87/56 203/94/56
f 195/85/57 194/84/57 199/95/57
f 196/90/58 195/89/58 200/96/58
f 197/92/59 196/90/59 201/97/59
f 198/87/60 197/92/60 202/98/60
f 194/84/61 203/94/61 199/95/61
f 195/85/62 199/95/62 200/99/62
f 196/90/63 200/96/63 201/97/63
f 197/92/64 201/97/64 202/98/64
f 198/87/65 202/98/65 203/94/65
f 199/95/66 203/94/66 204/100/66
f 200/99/67 199/95/67 204/101/67
f 201/97/68 200/96/68 204/102/68
f 202/98/69 201/97/69 204/103/69
f 203/94/70 202/98/70 204/104/70
f 205/83/71 206/84/71 207/85/71
f 206/84/72 205/86/72 210/87/72
f 205/88/73 207/89/73 208/90/73
f 205/91/74 208/90/74 209/92/74
f 205/93/75 209/92/75 210/87/75
f 206/84/76 210/87/76 215/94/76
f 207/85/77 206/84/77 211/95/77
f 208/90/78 207/89/78 212/96/78
f 209/92/79 208/90/79 213/97/79
f 210/87/80 209/92/80 214/98/80
f 206/84/81 215/94/81 211/95/81
f 207/85/82 211/95/82 212/99/82
f 208/90/83 212/96/83 213/97/83
f 209/92/84 213/97/84 214/98/84
f 210/87/85 214/98/85 215/94/85
f 211/95/86 215/94/86 216/100/86
f 212/99/87 211/95/87 216/101/87
f 213/97/88 212/96/88 216/102/88
f 214/98/89 213/97/89 216/103/89
f 215/94/90 214/98/90 216/104/90
f 217/83/91 218/84/91 219/85/91
f 218/84/92 217/86/92 222/87/92
f 217/88/93 219/89/93 220/90/93
f 217/91/94 220/90/94 221/92/94
f 217/93/95 221/92/95 222/87/95
f 218/84/96 222/87/96 227/94/96
f 219/85/97 218/84/97 223/95/97
f 220/90/98 219/89/98 224/96/98
f 221/92/99 220/90/99 225/97/99
f 222/87/100 221/92/100 226/98/100
f 218/84/101 227/94/101 223/95/101
f 219/85/102 223/95/102 224/99/102
f 220/90/103 224/96/103 225/97/103
f 221/92/104 225/97/104 226/98/104
f 222/87/105 226/98/105 227/94/105
f 223/95/106 227/94/106 228/100/106
f 224/99/107 223/95/107 228/101/107
f 225/97/108 224/96/108 228/102/108
f 226/98/109 225/97/109 228/103/109
f 227/94/110 226/98/110 228/104/110
f 229/83/111 230/84/111 231/85/111
f 230/84/112 229/86/112 234/87/112
f 229/88/113 231/89/113 232/90/113
f 229/91/114 232/90/114 233/92/114
f 229/93/115 233/92/115 234/87/115
f 230/84/116 234/87/116 239/94/116
f 231/85/117 230/84/117 235/95/117
f 232/90/118 231/89/118 236/96/118
f 233/92/119 232/90/119 237/97/119
f 234/87/120 233/92/120 238/98/120
f 230/84/121 239/94/121 235/95/121
f 231/85/122 235/95/122 236/99/122
f 232/90/123 236/96/123 237/97/123
f 233/92/124 237/97/124 238/98/124
f 234/87/125 238/98/125 239/94/125
f 235/95/126 239/94/126 240/100/126
f 236/99/127 235/95/127 240/101/127
f 237/97/128 236/96/128 240/102/128
f 238/98/129 237/97/129 240/103/129
f 239/94/130 238/98/130 240/104/130
f 241/83/131 242/84/131 243/85/131
f 242/84/132 241/86/132 246/87/132
f 241/88/133 243/89/133 244/90/133
f 241/91/134 244/90/134 245/92/134
f 241/93/135 245/92/135 246/87/135
f 242/84/136 246/87/136 251/94/136
f 243/85/137 242/84/137 247/95/137
f 244/90/138 243/89/138 248/96/138
f 245/92/139 244/90/139 249/97/139
f 246/87/140 245/92/140 250/98/140
f 242/84/141 251/94/141 247/95/141
f 243/85/142 247/95/142 248/99/142
f 244/90/143 248/96/143 249/97/143
f 245/92/144 249/97/144 250/98/144
f 246/87/145 250/98/145 251/94/145
f 247/95/146 251/94/146 252/100/146
f 248/99/147 247/95/147 252/101/147
f 249/97/148 248/96/148 252/102/148
f 250/98/149 249/97/149 252/103/149
f 251/94/150 250/98/150 252/104/150
